<mxfile host="app.diagrams.net" agent="Mozilla/5.0 (Windows NT 10.0; Win64; x64) AppleWebKit/537.36 (KHTML, like Gecko) Chrome/127.0.0.0 Safari/537.36" version="24.7.6">
  <diagram name="페이지-1" id="ukxxMPAlmyM7oNkTWLQT">
    <mxGraphModel dx="819" dy="1610" grid="1" gridSize="10" guides="1" tooltips="1" connect="1" arrows="1" fold="1" page="1" pageScale="1" pageWidth="827" pageHeight="1169" math="0" shadow="0">
      <root>
        <mxCell id="0" />
        <mxCell id="1" parent="0" />
        <mxCell id="VUXOVUJdnFgX3zHBfYaI-144" value="" style="shape=tableRow;horizontal=0;startSize=0;swimlaneHead=0;swimlaneBody=0;top=0;left=0;bottom=0;right=0;dropTarget=0;collapsible=0;recursiveResize=0;expand=0;fontStyle=0;strokeColor=inherit;fillColor=#ffffff;" vertex="1" parent="1">
          <mxGeometry x="600" y="-220" width="270" height="33" as="geometry" />
        </mxCell>
        <mxCell id="VUXOVUJdnFgX3zHBfYaI-145" value="1" style="connectable=0;recursiveResize=0;strokeColor=#98bf21;fillColor=inherit;fontStyle=0;align=center;whiteSpace=wrap;html=1;" vertex="1" parent="VUXOVUJdnFgX3zHBfYaI-144">
          <mxGeometry width="50" height="30" as="geometry">
            <mxRectangle width="93" height="33" as="alternateBounds" />
          </mxGeometry>
        </mxCell>
        <mxCell id="VUXOVUJdnFgX3zHBfYaI-146" value="다녀왔다" style="connectable=0;recursiveResize=0;strokeColor=#98bf21;fillColor=inherit;fontStyle=0;align=center;whiteSpace=wrap;html=1;" vertex="1" parent="VUXOVUJdnFgX3zHBfYaI-144">
          <mxGeometry x="50" width="70" height="30" as="geometry">
            <mxRectangle width="94" height="33" as="alternateBounds" />
          </mxGeometry>
        </mxCell>
        <mxCell id="3yqZF_V5rGoLSmcY_XIU-79" value="" style="rounded=0;whiteSpace=wrap;html=1;fillColor=none;" parent="1" vertex="1">
          <mxGeometry x="580" y="700" width="310" height="210" as="geometry" />
        </mxCell>
        <mxCell id="3yqZF_V5rGoLSmcY_XIU-7" style="rounded=0;orthogonalLoop=1;jettySize=auto;html=1;exitX=0.5;exitY=0;exitDx=0;exitDy=0;entryX=0.5;entryY=1;entryDx=0;entryDy=0;strokeColor=default;" parent="1" source="3yqZF_V5rGoLSmcY_XIU-1" target="3yqZF_V5rGoLSmcY_XIU-6" edge="1">
          <mxGeometry relative="1" as="geometry" />
        </mxCell>
        <mxCell id="3yqZF_V5rGoLSmcY_XIU-1" value="" style="rounded=1;whiteSpace=wrap;html=1;fillColor=#e1d5e7;strokeColor=#9673a6;" parent="1" vertex="1">
          <mxGeometry x="70" y="90" width="50" height="10" as="geometry" />
        </mxCell>
        <mxCell id="3yqZF_V5rGoLSmcY_XIU-9" style="rounded=0;orthogonalLoop=1;jettySize=auto;html=1;exitX=0.5;exitY=0;exitDx=0;exitDy=0;entryX=0.5;entryY=1;entryDx=0;entryDy=0;" parent="1" source="3yqZF_V5rGoLSmcY_XIU-2" target="3yqZF_V5rGoLSmcY_XIU-6" edge="1">
          <mxGeometry relative="1" as="geometry" />
        </mxCell>
        <mxCell id="3yqZF_V5rGoLSmcY_XIU-2" value="" style="rounded=1;whiteSpace=wrap;html=1;fillColor=#d5e8d4;strokeColor=#82b366;" parent="1" vertex="1">
          <mxGeometry x="140" y="90" width="50" height="10" as="geometry" />
        </mxCell>
        <mxCell id="3yqZF_V5rGoLSmcY_XIU-10" style="rounded=0;orthogonalLoop=1;jettySize=auto;html=1;exitX=0.5;exitY=0;exitDx=0;exitDy=0;entryX=0.5;entryY=1;entryDx=0;entryDy=0;" parent="1" source="3yqZF_V5rGoLSmcY_XIU-3" target="3yqZF_V5rGoLSmcY_XIU-6" edge="1">
          <mxGeometry relative="1" as="geometry" />
        </mxCell>
        <mxCell id="3yqZF_V5rGoLSmcY_XIU-3" value="" style="rounded=1;whiteSpace=wrap;html=1;fillColor=#dae8fc;strokeColor=#6c8ebf;" parent="1" vertex="1">
          <mxGeometry x="210" y="90" width="50" height="10" as="geometry" />
        </mxCell>
        <mxCell id="3yqZF_V5rGoLSmcY_XIU-11" style="rounded=0;orthogonalLoop=1;jettySize=auto;html=1;exitX=0.5;exitY=0;exitDx=0;exitDy=0;entryX=0.5;entryY=1;entryDx=0;entryDy=0;" parent="1" source="3yqZF_V5rGoLSmcY_XIU-4" target="3yqZF_V5rGoLSmcY_XIU-6" edge="1">
          <mxGeometry relative="1" as="geometry" />
        </mxCell>
        <mxCell id="3yqZF_V5rGoLSmcY_XIU-4" value="" style="rounded=1;whiteSpace=wrap;html=1;fillColor=#fff2cc;strokeColor=#d6b656;" parent="1" vertex="1">
          <mxGeometry x="280" y="90" width="50" height="10" as="geometry" />
        </mxCell>
        <mxCell id="3yqZF_V5rGoLSmcY_XIU-12" style="edgeStyle=orthogonalEdgeStyle;rounded=0;orthogonalLoop=1;jettySize=auto;html=1;exitX=0.5;exitY=0;exitDx=0;exitDy=0;entryX=0.5;entryY=1;entryDx=0;entryDy=0;" parent="1" source="3yqZF_V5rGoLSmcY_XIU-5" target="3yqZF_V5rGoLSmcY_XIU-6" edge="1">
          <mxGeometry relative="1" as="geometry" />
        </mxCell>
        <mxCell id="3yqZF_V5rGoLSmcY_XIU-5" value="" style="rounded=1;whiteSpace=wrap;html=1;fillColor=#ffe6cc;strokeColor=#d79b00;" parent="1" vertex="1">
          <mxGeometry x="350" y="90" width="50" height="10" as="geometry" />
        </mxCell>
        <mxCell id="3yqZF_V5rGoLSmcY_XIU-13" style="edgeStyle=orthogonalEdgeStyle;rounded=0;orthogonalLoop=1;jettySize=auto;html=1;exitX=0.5;exitY=0;exitDx=0;exitDy=0;entryX=0.5;entryY=1;entryDx=0;entryDy=0;" parent="1" source="3yqZF_V5rGoLSmcY_XIU-6" target="3yqZF_V5rGoLSmcY_XIU-15" edge="1">
          <mxGeometry relative="1" as="geometry">
            <mxPoint x="377.5238095238094" y="-70" as="targetPoint" />
          </mxGeometry>
        </mxCell>
        <mxCell id="3yqZF_V5rGoLSmcY_XIU-6" value="Attention" style="rounded=1;whiteSpace=wrap;html=1;" parent="1" vertex="1">
          <mxGeometry x="345" width="60" height="20" as="geometry" />
        </mxCell>
        <mxCell id="3yqZF_V5rGoLSmcY_XIU-15" value="" style="rounded=1;whiteSpace=wrap;html=1;fillColor=#ffe6cc;strokeColor=#d79b00;" parent="1" vertex="1">
          <mxGeometry x="350" y="-40" width="50" height="10" as="geometry" />
        </mxCell>
        <mxCell id="3yqZF_V5rGoLSmcY_XIU-18" value="검은" style="text;html=1;align=center;verticalAlign=middle;whiteSpace=wrap;rounded=0;fontSize=10;" parent="1" vertex="1">
          <mxGeometry x="77.5" y="100" width="35" height="20" as="geometry" />
        </mxCell>
        <mxCell id="3yqZF_V5rGoLSmcY_XIU-19" value="고양이가" style="text;html=1;align=center;verticalAlign=middle;whiteSpace=wrap;rounded=0;fontSize=10;" parent="1" vertex="1">
          <mxGeometry x="143.75" y="100" width="42.5" height="20" as="geometry" />
        </mxCell>
        <mxCell id="3yqZF_V5rGoLSmcY_XIU-20" value="밥을" style="text;html=1;align=center;verticalAlign=middle;whiteSpace=wrap;rounded=0;fontSize=10;" parent="1" vertex="1">
          <mxGeometry x="217.5" y="100" width="35" height="20" as="geometry" />
        </mxCell>
        <mxCell id="3yqZF_V5rGoLSmcY_XIU-21" value="먹고" style="text;html=1;align=center;verticalAlign=middle;whiteSpace=wrap;rounded=0;fontSize=10;" parent="1" vertex="1">
          <mxGeometry x="287.5" y="100" width="35" height="20" as="geometry" />
        </mxCell>
        <mxCell id="3yqZF_V5rGoLSmcY_XIU-22" value="물을" style="text;html=1;align=center;verticalAlign=middle;whiteSpace=wrap;rounded=0;fontSize=10;" parent="1" vertex="1">
          <mxGeometry x="357.5" y="100" width="35" height="20" as="geometry" />
        </mxCell>
        <mxCell id="3yqZF_V5rGoLSmcY_XIU-23" value="마신다" style="text;html=1;align=center;verticalAlign=middle;whiteSpace=wrap;rounded=0;fontSize=10;" parent="1" vertex="1">
          <mxGeometry x="357.5" y="-60" width="35" height="20" as="geometry" />
        </mxCell>
        <mxCell id="3yqZF_V5rGoLSmcY_XIU-24" value="" style="endArrow=classic;html=1;rounded=0;" parent="1" edge="1">
          <mxGeometry width="50" height="50" relative="1" as="geometry">
            <mxPoint x="200" y="400" as="sourcePoint" />
            <mxPoint x="360" y="400" as="targetPoint" />
          </mxGeometry>
        </mxCell>
        <mxCell id="3yqZF_V5rGoLSmcY_XIU-25" value="" style="endArrow=classic;html=1;rounded=0;" parent="1" edge="1">
          <mxGeometry width="50" height="50" relative="1" as="geometry">
            <mxPoint x="200" y="400" as="sourcePoint" />
            <mxPoint x="200" y="240" as="targetPoint" />
          </mxGeometry>
        </mxCell>
        <mxCell id="3yqZF_V5rGoLSmcY_XIU-34" value="성능" style="edgeLabel;html=1;align=center;verticalAlign=middle;resizable=0;points=[];" parent="3yqZF_V5rGoLSmcY_XIU-25" vertex="1" connectable="0">
          <mxGeometry x="0.403" y="-1" relative="1" as="geometry">
            <mxPoint x="-1" y="-56" as="offset" />
          </mxGeometry>
        </mxCell>
        <mxCell id="3yqZF_V5rGoLSmcY_XIU-26" value="" style="ellipse;whiteSpace=wrap;html=1;aspect=fixed;fillColor=#1ba1e2;fontColor=#ffffff;strokeColor=#006EAF;" parent="1" vertex="1">
          <mxGeometry x="214" y="257" width="40" height="40" as="geometry" />
        </mxCell>
        <mxCell id="3yqZF_V5rGoLSmcY_XIU-28" value="트랜스포머" style="text;html=1;align=center;verticalAlign=middle;whiteSpace=wrap;rounded=0;" parent="1" vertex="1">
          <mxGeometry x="201.25" y="234" width="67.5" height="30" as="geometry" />
        </mxCell>
        <mxCell id="3yqZF_V5rGoLSmcY_XIU-29" value="" style="ellipse;whiteSpace=wrap;html=1;aspect=fixed;fillColor=#008a00;fontColor=#ffffff;strokeColor=#005700;" parent="1" vertex="1">
          <mxGeometry x="301.5" y="352" width="40" height="40" as="geometry" />
        </mxCell>
        <mxCell id="3yqZF_V5rGoLSmcY_XIU-30" value="RNN" style="text;html=1;align=center;verticalAlign=middle;whiteSpace=wrap;rounded=0;" parent="1" vertex="1">
          <mxGeometry x="287.5" y="330" width="67.5" height="30" as="geometry" />
        </mxCell>
        <mxCell id="3yqZF_V5rGoLSmcY_XIU-31" value="" style="ellipse;whiteSpace=wrap;html=1;aspect=fixed;fillColor=#fa6800;fontColor=#000000;strokeColor=#C73500;" parent="1" vertex="1">
          <mxGeometry x="301.75" y="257" width="40" height="40" as="geometry" />
        </mxCell>
        <mxCell id="3yqZF_V5rGoLSmcY_XIU-32" value="새로운거?" style="text;html=1;align=center;verticalAlign=middle;whiteSpace=wrap;rounded=0;" parent="1" vertex="1">
          <mxGeometry x="291.75" y="234" width="60" height="30" as="geometry" />
        </mxCell>
        <mxCell id="3yqZF_V5rGoLSmcY_XIU-33" value="메모리 효율" style="text;html=1;align=center;verticalAlign=middle;resizable=0;points=[];autosize=1;strokeColor=none;fillColor=none;" parent="1" vertex="1">
          <mxGeometry x="345" y="387" width="90" height="30" as="geometry" />
        </mxCell>
        <mxCell id="3yqZF_V5rGoLSmcY_XIU-41" style="edgeStyle=orthogonalEdgeStyle;rounded=0;orthogonalLoop=1;jettySize=auto;html=1;exitX=1;exitY=0.5;exitDx=0;exitDy=0;entryX=0;entryY=0.5;entryDx=0;entryDy=0;endArrow=none;endFill=0;" parent="1" source="3yqZF_V5rGoLSmcY_XIU-35" target="3yqZF_V5rGoLSmcY_XIU-39" edge="1">
          <mxGeometry relative="1" as="geometry" />
        </mxCell>
        <mxCell id="3yqZF_V5rGoLSmcY_XIU-42" style="edgeStyle=orthogonalEdgeStyle;rounded=0;orthogonalLoop=1;jettySize=auto;html=1;exitX=1;exitY=0.5;exitDx=0;exitDy=0;entryX=0;entryY=0.5;entryDx=0;entryDy=0;endArrow=none;endFill=0;" parent="1" source="3yqZF_V5rGoLSmcY_XIU-35" target="3yqZF_V5rGoLSmcY_XIU-40" edge="1">
          <mxGeometry relative="1" as="geometry" />
        </mxCell>
        <mxCell id="3yqZF_V5rGoLSmcY_XIU-43" style="edgeStyle=orthogonalEdgeStyle;rounded=0;orthogonalLoop=1;jettySize=auto;html=1;exitX=1;exitY=0.5;exitDx=0;exitDy=0;entryX=0;entryY=0.5;entryDx=0;entryDy=0;endArrow=none;endFill=0;" parent="1" source="3yqZF_V5rGoLSmcY_XIU-35" target="3yqZF_V5rGoLSmcY_XIU-38" edge="1">
          <mxGeometry relative="1" as="geometry" />
        </mxCell>
        <mxCell id="3yqZF_V5rGoLSmcY_XIU-35" value="챗 GPT" style="rounded=1;whiteSpace=wrap;html=1;" parent="1" vertex="1">
          <mxGeometry x="540" y="120" width="50" height="20" as="geometry" />
        </mxCell>
        <mxCell id="3yqZF_V5rGoLSmcY_XIU-36" value="" style="rounded=0;whiteSpace=wrap;html=1;fillColor=none;dashed=1;" parent="1" vertex="1">
          <mxGeometry x="640" y="80" width="130" height="100" as="geometry" />
        </mxCell>
        <mxCell id="3yqZF_V5rGoLSmcY_XIU-37" value="LLM 활용" style="text;html=1;align=center;verticalAlign=middle;whiteSpace=wrap;rounded=0;" parent="1" vertex="1">
          <mxGeometry x="675" y="50" width="60" height="30" as="geometry" />
        </mxCell>
        <mxCell id="3yqZF_V5rGoLSmcY_XIU-38" value="sLLM(small LLM)" style="rounded=0;whiteSpace=wrap;html=1;fillColor=none;" parent="1" vertex="1">
          <mxGeometry x="645" y="90" width="120" height="20" as="geometry" />
        </mxCell>
        <mxCell id="3yqZF_V5rGoLSmcY_XIU-39" value="효율적인 학습과 추론" style="rounded=0;whiteSpace=wrap;html=1;fillColor=none;" parent="1" vertex="1">
          <mxGeometry x="645" y="120" width="120" height="20" as="geometry" />
        </mxCell>
        <mxCell id="3yqZF_V5rGoLSmcY_XIU-40" value="RAG" style="rounded=0;whiteSpace=wrap;html=1;fillColor=none;" parent="1" vertex="1">
          <mxGeometry x="645" y="150" width="120" height="20" as="geometry" />
        </mxCell>
        <mxCell id="3yqZF_V5rGoLSmcY_XIU-47" style="edgeStyle=orthogonalEdgeStyle;rounded=0;orthogonalLoop=1;jettySize=auto;html=1;exitX=1;exitY=0.5;exitDx=0;exitDy=0;" parent="1" source="3yqZF_V5rGoLSmcY_XIU-45" target="3yqZF_V5rGoLSmcY_XIU-46" edge="1">
          <mxGeometry relative="1" as="geometry" />
        </mxCell>
        <mxCell id="3yqZF_V5rGoLSmcY_XIU-48" value="검색+요약+해설" style="edgeLabel;html=1;align=center;verticalAlign=middle;resizable=0;points=[];" parent="3yqZF_V5rGoLSmcY_XIU-47" vertex="1" connectable="0">
          <mxGeometry x="0.045" relative="1" as="geometry">
            <mxPoint x="-5" y="11" as="offset" />
          </mxGeometry>
        </mxCell>
        <mxCell id="3yqZF_V5rGoLSmcY_XIU-45" value="인터넷" style="image;aspect=fixed;perimeter=ellipsePerimeter;html=1;align=center;shadow=0;dashed=0;spacingTop=3;image=img/lib/active_directory/internet_cloud.svg;" parent="1" vertex="1">
          <mxGeometry x="120" y="560" width="60" height="37.8" as="geometry" />
        </mxCell>
        <mxCell id="3yqZF_V5rGoLSmcY_XIU-46" value="사용자" style="shape=umlActor;verticalLabelPosition=bottom;verticalAlign=top;html=1;outlineConnect=0;" parent="1" vertex="1">
          <mxGeometry x="261.75" y="548.9" width="30" height="60" as="geometry" />
        </mxCell>
        <mxCell id="3yqZF_V5rGoLSmcY_XIU-49" value="지식의 습득" style="edgeLabel;html=1;align=center;verticalAlign=middle;resizable=0;points=[];" parent="1" vertex="1" connectable="0">
          <mxGeometry x="215.49714285714367" y="569.9999999999997" as="geometry" />
        </mxCell>
        <mxCell id="3yqZF_V5rGoLSmcY_XIU-50" value="문서,이미지" style="html=1;verticalLabelPosition=bottom;align=center;labelBackgroundColor=#ffffff;verticalAlign=top;strokeWidth=2;strokeColor=#0080F0;shadow=0;dashed=0;shape=mxgraph.ios7.icons.documents;" parent="1" vertex="1">
          <mxGeometry x="414" y="561.95" width="40" height="33.9" as="geometry" />
        </mxCell>
        <mxCell id="3yqZF_V5rGoLSmcY_XIU-51" style="edgeStyle=orthogonalEdgeStyle;rounded=0;orthogonalLoop=1;jettySize=auto;html=1;entryX=-0.004;entryY=0.509;entryDx=0;entryDy=0;entryPerimeter=0;" parent="1" source="3yqZF_V5rGoLSmcY_XIU-46" target="3yqZF_V5rGoLSmcY_XIU-50" edge="1">
          <mxGeometry relative="1" as="geometry">
            <mxPoint x="300" y="580" as="sourcePoint" />
          </mxGeometry>
        </mxCell>
        <mxCell id="3yqZF_V5rGoLSmcY_XIU-52" value="문서 생성, 이미지 생성" style="edgeLabel;html=1;align=center;verticalAlign=middle;resizable=0;points=[];" parent="3yqZF_V5rGoLSmcY_XIU-51" vertex="1" connectable="0">
          <mxGeometry x="-0.2336" y="1" relative="1" as="geometry">
            <mxPoint x="12" y="9" as="offset" />
          </mxGeometry>
        </mxCell>
        <mxCell id="3yqZF_V5rGoLSmcY_XIU-53" value="지식의 활용" style="edgeLabel;html=1;align=center;verticalAlign=middle;resizable=0;points=[];" parent="1" vertex="1" connectable="0">
          <mxGeometry x="357.4971428571437" y="569.9999999999997" as="geometry" />
        </mxCell>
        <mxCell id="3yqZF_V5rGoLSmcY_XIU-54" style="edgeStyle=orthogonalEdgeStyle;rounded=0;orthogonalLoop=1;jettySize=auto;html=1;exitX=1;exitY=0.5;exitDx=0;exitDy=0;entryX=0;entryY=0.5;entryDx=0;entryDy=0;endArrow=none;endFill=0;" parent="1" source="3yqZF_V5rGoLSmcY_XIU-57" target="3yqZF_V5rGoLSmcY_XIU-61" edge="1">
          <mxGeometry relative="1" as="geometry" />
        </mxCell>
        <mxCell id="3yqZF_V5rGoLSmcY_XIU-55" style="edgeStyle=orthogonalEdgeStyle;rounded=0;orthogonalLoop=1;jettySize=auto;html=1;exitX=1;exitY=0.5;exitDx=0;exitDy=0;entryX=0;entryY=0.5;entryDx=0;entryDy=0;endArrow=none;endFill=0;" parent="1" source="3yqZF_V5rGoLSmcY_XIU-57" target="3yqZF_V5rGoLSmcY_XIU-62" edge="1">
          <mxGeometry relative="1" as="geometry" />
        </mxCell>
        <mxCell id="3yqZF_V5rGoLSmcY_XIU-56" style="edgeStyle=orthogonalEdgeStyle;rounded=0;orthogonalLoop=1;jettySize=auto;html=1;exitX=1;exitY=0.5;exitDx=0;exitDy=0;entryX=0;entryY=0.5;entryDx=0;entryDy=0;endArrow=none;endFill=0;" parent="1" source="3yqZF_V5rGoLSmcY_XIU-57" target="3yqZF_V5rGoLSmcY_XIU-60" edge="1">
          <mxGeometry relative="1" as="geometry" />
        </mxCell>
        <mxCell id="3yqZF_V5rGoLSmcY_XIU-57" value="GPT-4o" style="rounded=1;whiteSpace=wrap;html=1;" parent="1" vertex="1">
          <mxGeometry x="224" y="760" width="50" height="20" as="geometry" />
        </mxCell>
        <mxCell id="3yqZF_V5rGoLSmcY_XIU-58" value="" style="rounded=0;whiteSpace=wrap;html=1;fillColor=none;dashed=1;" parent="1" vertex="1">
          <mxGeometry x="321.5" y="720" width="146" height="100" as="geometry" />
        </mxCell>
        <mxCell id="3yqZF_V5rGoLSmcY_XIU-59" value="LLM의 미래" style="text;html=1;align=center;verticalAlign=middle;whiteSpace=wrap;rounded=0;" parent="1" vertex="1">
          <mxGeometry x="360" y="690" width="70" height="30" as="geometry" />
        </mxCell>
        <mxCell id="3yqZF_V5rGoLSmcY_XIU-60" value="멀티 모달(Multi Modal)" style="rounded=0;whiteSpace=wrap;html=1;fillColor=none;" parent="1" vertex="1">
          <mxGeometry x="329" y="730" width="131" height="20" as="geometry" />
        </mxCell>
        <mxCell id="3yqZF_V5rGoLSmcY_XIU-61" value="에이전트" style="rounded=0;whiteSpace=wrap;html=1;fillColor=none;" parent="1" vertex="1">
          <mxGeometry x="329" y="760" width="131" height="20" as="geometry" />
        </mxCell>
        <mxCell id="3yqZF_V5rGoLSmcY_XIU-62" value="새로운 아키텍처" style="rounded=0;whiteSpace=wrap;html=1;fillColor=none;" parent="1" vertex="1">
          <mxGeometry x="329" y="790" width="131" height="20" as="geometry" />
        </mxCell>
        <mxCell id="3yqZF_V5rGoLSmcY_XIU-65" style="edgeStyle=orthogonalEdgeStyle;rounded=0;orthogonalLoop=1;jettySize=auto;html=1;exitX=1;exitY=0.5;exitDx=0;exitDy=0;entryX=0;entryY=0.5;entryDx=0;entryDy=0;endArrow=none;endFill=0;" parent="1" source="3yqZF_V5rGoLSmcY_XIU-64" target="3yqZF_V5rGoLSmcY_XIU-57" edge="1">
          <mxGeometry relative="1" as="geometry" />
        </mxCell>
        <mxCell id="3yqZF_V5rGoLSmcY_XIU-64" value="챗 GPT" style="rounded=1;whiteSpace=wrap;html=1;" parent="1" vertex="1">
          <mxGeometry x="143.75" y="760" width="50" height="20" as="geometry" />
        </mxCell>
        <mxCell id="3yqZF_V5rGoLSmcY_XIU-66" value="" style="sketch=0;outlineConnect=0;fontColor=#232F3E;gradientColor=none;fillColor=#ED7100;strokeColor=none;dashed=0;verticalLabelPosition=bottom;verticalAlign=top;align=center;html=1;fontSize=12;fontStyle=0;aspect=fixed;pointerEvents=1;shape=mxgraph.aws4.container_registry_image;" parent="1" vertex="1">
          <mxGeometry x="600" y="771" width="38" height="38" as="geometry" />
        </mxCell>
        <mxCell id="3yqZF_V5rGoLSmcY_XIU-67" value="" style="verticalLabelPosition=bottom;shadow=0;dashed=0;align=center;html=1;verticalAlign=top;shape=mxgraph.electrical.radio.headphones;pointerEvents=1;" parent="1" vertex="1">
          <mxGeometry x="655" y="770" width="40" height="40" as="geometry" />
        </mxCell>
        <mxCell id="3yqZF_V5rGoLSmcY_XIU-68" value="LLM" style="image;sketch=0;aspect=fixed;html=1;points=[];align=center;fontSize=12;image=img/lib/mscae/Cognitive_Services.svg;" parent="1" vertex="1">
          <mxGeometry x="710" y="800" width="50" height="30" as="geometry" />
        </mxCell>
        <mxCell id="3yqZF_V5rGoLSmcY_XIU-69" value="" style="endArrow=classic;html=1;rounded=0;" parent="1" edge="1">
          <mxGeometry width="50" height="50" relative="1" as="geometry">
            <mxPoint x="560" y="820" as="sourcePoint" />
            <mxPoint x="710" y="820" as="targetPoint" />
          </mxGeometry>
        </mxCell>
        <mxCell id="3yqZF_V5rGoLSmcY_XIU-70" value="" style="sketch=0;outlineConnect=0;fontColor=#232F3E;gradientColor=none;fillColor=#ED7100;strokeColor=none;dashed=0;verticalLabelPosition=bottom;verticalAlign=top;align=center;html=1;fontSize=12;fontStyle=0;aspect=fixed;pointerEvents=1;shape=mxgraph.aws4.container_registry_image;" parent="1" vertex="1">
          <mxGeometry x="770" y="772" width="38" height="38" as="geometry" />
        </mxCell>
        <mxCell id="3yqZF_V5rGoLSmcY_XIU-71" value="" style="verticalLabelPosition=bottom;shadow=0;dashed=0;align=center;html=1;verticalAlign=top;shape=mxgraph.electrical.radio.headphones;pointerEvents=1;" parent="1" vertex="1">
          <mxGeometry x="820" y="770" width="40" height="40" as="geometry" />
        </mxCell>
        <mxCell id="3yqZF_V5rGoLSmcY_XIU-72" value="" style="endArrow=classic;html=1;rounded=0;" parent="1" edge="1">
          <mxGeometry width="50" height="50" relative="1" as="geometry">
            <mxPoint x="760" y="820" as="sourcePoint" />
            <mxPoint x="910" y="820" as="targetPoint" />
          </mxGeometry>
        </mxCell>
        <mxCell id="3yqZF_V5rGoLSmcY_XIU-75" style="rounded=0;orthogonalLoop=1;jettySize=auto;html=1;exitX=1;exitY=0;exitDx=0;exitDy=0;endArrow=none;endFill=0;" parent="1" source="3yqZF_V5rGoLSmcY_XIU-73" edge="1">
          <mxGeometry relative="1" as="geometry">
            <mxPoint x="730" y="730" as="targetPoint" />
          </mxGeometry>
        </mxCell>
        <mxCell id="3yqZF_V5rGoLSmcY_XIU-73" value="" style="rounded=0;whiteSpace=wrap;html=1;fillColor=none;dashed=1;" parent="1" vertex="1">
          <mxGeometry x="590" y="762" width="110" height="55" as="geometry" />
        </mxCell>
        <mxCell id="3yqZF_V5rGoLSmcY_XIU-76" style="rounded=0;orthogonalLoop=1;jettySize=auto;html=1;exitX=0;exitY=0;exitDx=0;exitDy=0;endArrow=none;endFill=0;" parent="1" source="3yqZF_V5rGoLSmcY_XIU-74" edge="1">
          <mxGeometry relative="1" as="geometry">
            <mxPoint x="730" y="730" as="targetPoint" />
          </mxGeometry>
        </mxCell>
        <mxCell id="3yqZF_V5rGoLSmcY_XIU-74" value="" style="rounded=0;whiteSpace=wrap;html=1;fillColor=none;dashed=1;" parent="1" vertex="1">
          <mxGeometry x="762" y="762" width="110" height="55" as="geometry" />
        </mxCell>
        <mxCell id="3yqZF_V5rGoLSmcY_XIU-77" value="멀티 모달&amp;nbsp;" style="text;html=1;align=center;verticalAlign=middle;whiteSpace=wrap;rounded=0;" parent="1" vertex="1">
          <mxGeometry x="702" y="710" width="60" height="20" as="geometry" />
        </mxCell>
        <mxCell id="3yqZF_V5rGoLSmcY_XIU-78" value="Search&lt;br&gt;&lt;div&gt;(RAG)&lt;/div&gt;" style="sketch=0;outlineConnect=0;fontColor=#232F3E;gradientColor=none;strokeColor=#232F3E;fillColor=#ffffff;dashed=0;verticalLabelPosition=bottom;verticalAlign=top;align=center;html=1;fontSize=12;fontStyle=0;aspect=fixed;shape=mxgraph.aws4.resourceIcon;resIcon=mxgraph.aws4.search_documents;" parent="1" vertex="1">
          <mxGeometry x="778" y="830" width="40" height="40" as="geometry" />
        </mxCell>
        <mxCell id="3yqZF_V5rGoLSmcY_XIU-81" value="에이전트" style="text;html=1;align=center;verticalAlign=middle;whiteSpace=wrap;rounded=0;" parent="1" vertex="1">
          <mxGeometry x="700" y="680" width="60" height="20" as="geometry" />
        </mxCell>
        <mxCell id="VUXOVUJdnFgX3zHBfYaI-8" value="" style="endArrow=classic;startArrow=classic;html=1;rounded=0;" edge="1" parent="1">
          <mxGeometry width="50" height="50" relative="1" as="geometry">
            <mxPoint x="701" y="306" as="sourcePoint" />
            <mxPoint x="901" y="306" as="targetPoint" />
          </mxGeometry>
        </mxCell>
        <mxCell id="VUXOVUJdnFgX3zHBfYaI-9" value="음절" style="text;html=1;align=center;verticalAlign=middle;whiteSpace=wrap;rounded=0;" vertex="1" parent="1">
          <mxGeometry x="787" y="310" width="33" height="20" as="geometry" />
        </mxCell>
        <mxCell id="VUXOVUJdnFgX3zHBfYaI-10" value="단어" style="text;html=1;align=center;verticalAlign=middle;whiteSpace=wrap;rounded=0;" vertex="1" parent="1">
          <mxGeometry x="872.75" y="311" width="33" height="20" as="geometry" />
        </mxCell>
        <mxCell id="VUXOVUJdnFgX3zHBfYaI-11" value="자모" style="text;html=1;align=center;verticalAlign=middle;whiteSpace=wrap;rounded=0;" vertex="1" parent="1">
          <mxGeometry x="702" y="311" width="33" height="20" as="geometry" />
        </mxCell>
        <mxCell id="VUXOVUJdnFgX3zHBfYaI-16" value="작은 단위" style="text;html=1;align=center;verticalAlign=middle;whiteSpace=wrap;rounded=0;" vertex="1" parent="1">
          <mxGeometry x="686.75" y="284" width="55" height="13" as="geometry" />
        </mxCell>
        <mxCell id="VUXOVUJdnFgX3zHBfYaI-17" value="큰 단위" style="text;html=1;align=center;verticalAlign=middle;whiteSpace=wrap;rounded=0;" vertex="1" parent="1">
          <mxGeometry x="865.13" y="284" width="48.25" height="13" as="geometry" />
        </mxCell>
        <mxCell id="VUXOVUJdnFgX3zHBfYaI-19" value="&lt;ul&gt;&lt;li&gt;&lt;font style=&quot;font-size: 9px;&quot;&gt;OOV 방지&lt;/font&gt;&lt;/li&gt;&lt;/ul&gt;" style="text;html=1;align=center;verticalAlign=middle;whiteSpace=wrap;rounded=0;" vertex="1" parent="1">
          <mxGeometry x="655" y="323" width="98.5" height="29" as="geometry" />
        </mxCell>
        <mxCell id="VUXOVUJdnFgX3zHBfYaI-20" value="&lt;ul&gt;&lt;li&gt;&lt;font size=&quot;1&quot;&gt;외국어&lt;/font&gt;&lt;/li&gt;&lt;li&gt;&lt;font size=&quot;1&quot;&gt;특수 문자&lt;/font&gt;&lt;/li&gt;&lt;li&gt;&lt;font size=&quot;1&quot;&gt;이모티콘&lt;/font&gt;&lt;/li&gt;&lt;/ul&gt;" style="text;html=1;align=center;verticalAlign=middle;whiteSpace=wrap;rounded=0;" vertex="1" parent="1">
          <mxGeometry x="741.75" y="335" width="98.5" height="29" as="geometry" />
        </mxCell>
        <mxCell id="VUXOVUJdnFgX3zHBfYaI-21" value="&lt;ul&gt;&lt;li&gt;&lt;font size=&quot;1&quot;&gt;자주 사용하는 표현&lt;/font&gt;&lt;/li&gt;&lt;li&gt;&lt;font size=&quot;1&quot;&gt;국가 이름&lt;/font&gt;&lt;/li&gt;&lt;li&gt;&lt;font size=&quot;1&quot;&gt;유명인 이름&lt;/font&gt;&lt;/li&gt;&lt;/ul&gt;" style="text;html=1;align=center;verticalAlign=middle;whiteSpace=wrap;rounded=0;" vertex="1" parent="1">
          <mxGeometry x="840.25" y="335" width="130" height="29" as="geometry" />
        </mxCell>
        <mxCell id="VUXOVUJdnFgX3zHBfYaI-22" value="" style="endArrow=classic;html=1;rounded=0;" edge="1" parent="1">
          <mxGeometry width="50" height="50" relative="1" as="geometry">
            <mxPoint x="770" y="380" as="sourcePoint" />
            <mxPoint x="900" y="380" as="targetPoint" />
          </mxGeometry>
        </mxCell>
        <mxCell id="VUXOVUJdnFgX3zHBfYaI-23" value="&lt;font style=&quot;font-size: 9px;&quot;&gt;자주 등장할수록 원래 형태를 유지&lt;/font&gt;" style="text;html=1;align=center;verticalAlign=middle;whiteSpace=wrap;rounded=0;" vertex="1" parent="1">
          <mxGeometry x="735" y="380" width="190" height="30" as="geometry" />
        </mxCell>
        <mxCell id="VUXOVUJdnFgX3zHBfYaI-41" value="" style="group" vertex="1" connectable="0" parent="1">
          <mxGeometry x="193.75" y="-210" width="166.25" height="20" as="geometry" />
        </mxCell>
        <mxCell id="VUXOVUJdnFgX3zHBfYaI-24" value="나는" style="rounded=0;whiteSpace=wrap;html=1;" vertex="1" parent="VUXOVUJdnFgX3zHBfYaI-41">
          <mxGeometry width="26.25" height="20" as="geometry" />
        </mxCell>
        <mxCell id="VUXOVUJdnFgX3zHBfYaI-25" value="최근" style="rounded=0;whiteSpace=wrap;html=1;" vertex="1" parent="VUXOVUJdnFgX3zHBfYaI-41">
          <mxGeometry x="26.25" width="26.25" height="20" as="geometry" />
        </mxCell>
        <mxCell id="VUXOVUJdnFgX3zHBfYaI-26" value="파리" style="rounded=0;whiteSpace=wrap;html=1;" vertex="1" parent="VUXOVUJdnFgX3zHBfYaI-41">
          <mxGeometry x="52.5" width="26.25" height="20" as="geometry" />
        </mxCell>
        <mxCell id="VUXOVUJdnFgX3zHBfYaI-27" value="여행을" style="rounded=0;whiteSpace=wrap;html=1;" vertex="1" parent="VUXOVUJdnFgX3zHBfYaI-41">
          <mxGeometry x="78.75" width="37.5" height="20" as="geometry" />
        </mxCell>
        <mxCell id="VUXOVUJdnFgX3zHBfYaI-28" value="다녀왔다" style="rounded=0;whiteSpace=wrap;html=1;" vertex="1" parent="VUXOVUJdnFgX3zHBfYaI-41">
          <mxGeometry x="116.25" width="50" height="20" as="geometry" />
        </mxCell>
        <mxCell id="VUXOVUJdnFgX3zHBfYaI-42" value="" style="group" vertex="1" connectable="0" parent="1">
          <mxGeometry x="320" y="-290" width="90" height="20" as="geometry" />
        </mxCell>
        <mxCell id="VUXOVUJdnFgX3zHBfYaI-36" value="0" style="rounded=0;whiteSpace=wrap;html=1;" vertex="1" parent="VUXOVUJdnFgX3zHBfYaI-42">
          <mxGeometry width="13.75" height="20" as="geometry" />
        </mxCell>
        <mxCell id="VUXOVUJdnFgX3zHBfYaI-37" value="1" style="rounded=0;whiteSpace=wrap;html=1;" vertex="1" parent="VUXOVUJdnFgX3zHBfYaI-42">
          <mxGeometry x="13.75" width="16.25" height="20" as="geometry" />
        </mxCell>
        <mxCell id="VUXOVUJdnFgX3zHBfYaI-38" value="2" style="rounded=0;whiteSpace=wrap;html=1;" vertex="1" parent="VUXOVUJdnFgX3zHBfYaI-42">
          <mxGeometry x="30" width="20" height="20" as="geometry" />
        </mxCell>
        <mxCell id="VUXOVUJdnFgX3zHBfYaI-39" value="3" style="rounded=0;whiteSpace=wrap;html=1;" vertex="1" parent="VUXOVUJdnFgX3zHBfYaI-42">
          <mxGeometry x="50" width="20" height="20" as="geometry" />
        </mxCell>
        <mxCell id="VUXOVUJdnFgX3zHBfYaI-40" value="4" style="rounded=0;whiteSpace=wrap;html=1;" vertex="1" parent="VUXOVUJdnFgX3zHBfYaI-42">
          <mxGeometry x="70" width="20" height="20" as="geometry" />
        </mxCell>
        <mxCell id="VUXOVUJdnFgX3zHBfYaI-43" value="" style="group" vertex="1" connectable="0" parent="1">
          <mxGeometry x="150" y="-290" width="90" height="20" as="geometry" />
        </mxCell>
        <mxCell id="VUXOVUJdnFgX3zHBfYaI-30" value="0" style="rounded=0;whiteSpace=wrap;html=1;" vertex="1" parent="VUXOVUJdnFgX3zHBfYaI-43">
          <mxGeometry width="13.75" height="20" as="geometry" />
        </mxCell>
        <mxCell id="VUXOVUJdnFgX3zHBfYaI-31" value="1" style="rounded=0;whiteSpace=wrap;html=1;" vertex="1" parent="VUXOVUJdnFgX3zHBfYaI-43">
          <mxGeometry x="13.75" width="16.25" height="20" as="geometry" />
        </mxCell>
        <mxCell id="VUXOVUJdnFgX3zHBfYaI-32" value="2" style="rounded=0;whiteSpace=wrap;html=1;" vertex="1" parent="VUXOVUJdnFgX3zHBfYaI-43">
          <mxGeometry x="30" width="20" height="20" as="geometry" />
        </mxCell>
        <mxCell id="VUXOVUJdnFgX3zHBfYaI-33" value="3" style="rounded=0;whiteSpace=wrap;html=1;" vertex="1" parent="VUXOVUJdnFgX3zHBfYaI-43">
          <mxGeometry x="50" width="20" height="20" as="geometry" />
        </mxCell>
        <mxCell id="VUXOVUJdnFgX3zHBfYaI-34" value="4" style="rounded=0;whiteSpace=wrap;html=1;" vertex="1" parent="VUXOVUJdnFgX3zHBfYaI-43">
          <mxGeometry x="70" width="20" height="20" as="geometry" />
        </mxCell>
        <mxCell id="VUXOVUJdnFgX3zHBfYaI-44" style="edgeStyle=orthogonalEdgeStyle;rounded=0;orthogonalLoop=1;jettySize=auto;html=1;exitX=0;exitY=0;exitDx=0;exitDy=0;entryX=0.5;entryY=1;entryDx=0;entryDy=0;" edge="1" parent="1" source="VUXOVUJdnFgX3zHBfYaI-27" target="VUXOVUJdnFgX3zHBfYaI-32">
          <mxGeometry relative="1" as="geometry" />
        </mxCell>
        <mxCell id="VUXOVUJdnFgX3zHBfYaI-47" value="토큰 아이디 부여" style="edgeLabel;html=1;align=center;verticalAlign=middle;resizable=0;points=[];" vertex="1" connectable="0" parent="VUXOVUJdnFgX3zHBfYaI-44">
          <mxGeometry x="0.152" y="-2" relative="1" as="geometry">
            <mxPoint y="12" as="offset" />
          </mxGeometry>
        </mxCell>
        <mxCell id="VUXOVUJdnFgX3zHBfYaI-46" style="edgeStyle=orthogonalEdgeStyle;rounded=0;orthogonalLoop=1;jettySize=auto;html=1;exitX=1;exitY=0;exitDx=0;exitDy=0;entryX=0.5;entryY=1;entryDx=0;entryDy=0;" edge="1" parent="1" source="VUXOVUJdnFgX3zHBfYaI-26" target="VUXOVUJdnFgX3zHBfYaI-38">
          <mxGeometry relative="1" as="geometry" />
        </mxCell>
        <mxCell id="VUXOVUJdnFgX3zHBfYaI-48" value="위치 아이디" style="edgeLabel;html=1;align=center;verticalAlign=middle;resizable=0;points=[];" vertex="1" connectable="0" parent="VUXOVUJdnFgX3zHBfYaI-46">
          <mxGeometry x="0.5136" y="-3" relative="1" as="geometry">
            <mxPoint x="-24" y="7" as="offset" />
          </mxGeometry>
        </mxCell>
        <mxCell id="VUXOVUJdnFgX3zHBfYaI-69" style="edgeStyle=orthogonalEdgeStyle;rounded=0;orthogonalLoop=1;jettySize=auto;html=1;exitX=0.5;exitY=0;exitDx=0;exitDy=0;entryX=0.5;entryY=1;entryDx=0;entryDy=0;" edge="1" parent="1" source="VUXOVUJdnFgX3zHBfYaI-49" target="VUXOVUJdnFgX3zHBfYaI-53">
          <mxGeometry relative="1" as="geometry" />
        </mxCell>
        <mxCell id="VUXOVUJdnFgX3zHBfYaI-49" value="토큰 임베딩 층" style="rounded=0;whiteSpace=wrap;html=1;" vertex="1" parent="1">
          <mxGeometry x="148.75" y="-330" width="91.25" height="20" as="geometry" />
        </mxCell>
        <mxCell id="VUXOVUJdnFgX3zHBfYaI-68" style="edgeStyle=orthogonalEdgeStyle;rounded=0;orthogonalLoop=1;jettySize=auto;html=1;exitX=0.5;exitY=0;exitDx=0;exitDy=0;entryX=0.5;entryY=1;entryDx=0;entryDy=0;" edge="1" parent="1" source="VUXOVUJdnFgX3zHBfYaI-50" target="VUXOVUJdnFgX3zHBfYaI-54">
          <mxGeometry relative="1" as="geometry" />
        </mxCell>
        <mxCell id="VUXOVUJdnFgX3zHBfYaI-50" value="위치 인코딩 층" style="rounded=0;whiteSpace=wrap;html=1;" vertex="1" parent="1">
          <mxGeometry x="318.75" y="-330" width="91.25" height="20" as="geometry" />
        </mxCell>
        <mxCell id="VUXOVUJdnFgX3zHBfYaI-51" style="edgeStyle=orthogonalEdgeStyle;rounded=0;orthogonalLoop=1;jettySize=auto;html=1;exitX=0.5;exitY=0;exitDx=0;exitDy=0;entryX=0.5;entryY=1;entryDx=0;entryDy=0;" edge="1" parent="1" source="VUXOVUJdnFgX3zHBfYaI-32" target="VUXOVUJdnFgX3zHBfYaI-49">
          <mxGeometry relative="1" as="geometry" />
        </mxCell>
        <mxCell id="VUXOVUJdnFgX3zHBfYaI-52" style="edgeStyle=orthogonalEdgeStyle;rounded=0;orthogonalLoop=1;jettySize=auto;html=1;exitX=0.5;exitY=0;exitDx=0;exitDy=0;entryX=0.5;entryY=1;entryDx=0;entryDy=0;" edge="1" parent="1" source="VUXOVUJdnFgX3zHBfYaI-38" target="VUXOVUJdnFgX3zHBfYaI-50">
          <mxGeometry relative="1" as="geometry" />
        </mxCell>
        <mxCell id="VUXOVUJdnFgX3zHBfYaI-65" style="edgeStyle=orthogonalEdgeStyle;rounded=0;orthogonalLoop=1;jettySize=auto;html=1;exitX=1;exitY=0.5;exitDx=0;exitDy=0;entryX=0;entryY=0.5;entryDx=0;entryDy=0;" edge="1" parent="1" source="VUXOVUJdnFgX3zHBfYaI-53" target="VUXOVUJdnFgX3zHBfYaI-62">
          <mxGeometry relative="1" as="geometry" />
        </mxCell>
        <mxCell id="VUXOVUJdnFgX3zHBfYaI-53" value="토큰 임베딩 출력" style="rounded=0;whiteSpace=wrap;html=1;" vertex="1" parent="1">
          <mxGeometry x="144.38" y="-370" width="101.25" height="20" as="geometry" />
        </mxCell>
        <mxCell id="VUXOVUJdnFgX3zHBfYaI-64" style="edgeStyle=orthogonalEdgeStyle;rounded=0;orthogonalLoop=1;jettySize=auto;html=1;exitX=0;exitY=0.5;exitDx=0;exitDy=0;entryX=1;entryY=0.5;entryDx=0;entryDy=0;" edge="1" parent="1" source="VUXOVUJdnFgX3zHBfYaI-54" target="VUXOVUJdnFgX3zHBfYaI-62">
          <mxGeometry relative="1" as="geometry" />
        </mxCell>
        <mxCell id="VUXOVUJdnFgX3zHBfYaI-54" value="위치 인코딩 출력" style="rounded=0;whiteSpace=wrap;html=1;" vertex="1" parent="1">
          <mxGeometry x="314.38" y="-370" width="101.25" height="20" as="geometry" />
        </mxCell>
        <mxCell id="VUXOVUJdnFgX3zHBfYaI-66" style="edgeStyle=orthogonalEdgeStyle;rounded=0;orthogonalLoop=1;jettySize=auto;html=1;exitX=0.5;exitY=0;exitDx=0;exitDy=0;" edge="1" parent="1" source="VUXOVUJdnFgX3zHBfYaI-62">
          <mxGeometry relative="1" as="geometry">
            <mxPoint x="279.2857142857142" y="-400" as="targetPoint" />
          </mxGeometry>
        </mxCell>
        <mxCell id="VUXOVUJdnFgX3zHBfYaI-62" value="&lt;font style=&quot;font-size: 21px;&quot;&gt;+&lt;/font&gt;" style="rounded=0;whiteSpace=wrap;html=1;" vertex="1" parent="1">
          <mxGeometry x="268.75" y="-370" width="21.25" height="20" as="geometry" />
        </mxCell>
        <mxCell id="VUXOVUJdnFgX3zHBfYaI-67" value="최종 입력 임베딩" style="text;html=1;align=center;verticalAlign=middle;whiteSpace=wrap;rounded=0;" vertex="1" parent="1">
          <mxGeometry x="229.06" y="-430" width="100.62" height="30" as="geometry" />
        </mxCell>
        <mxCell id="VUXOVUJdnFgX3zHBfYaI-70" value="(배치,토큰 수,임베딩차원)" style="text;html=1;align=center;verticalAlign=middle;whiteSpace=wrap;rounded=0;" vertex="1" parent="1">
          <mxGeometry x="292.5" y="-400" width="145" height="30" as="geometry" />
        </mxCell>
        <mxCell id="VUXOVUJdnFgX3zHBfYaI-71" value="(배치,토큰 수,임베딩차원)" style="text;html=1;align=center;verticalAlign=middle;whiteSpace=wrap;rounded=0;" vertex="1" parent="1">
          <mxGeometry x="121.88" y="-400" width="145" height="30" as="geometry" />
        </mxCell>
        <mxCell id="VUXOVUJdnFgX3zHBfYaI-148" style="edgeStyle=orthogonalEdgeStyle;rounded=0;orthogonalLoop=1;jettySize=auto;html=1;exitX=1;exitY=0.5;exitDx=0;exitDy=0;entryX=0;entryY=0.5;entryDx=0;entryDy=0;" edge="1" parent="1" source="VUXOVUJdnFgX3zHBfYaI-72" target="VUXOVUJdnFgX3zHBfYaI-132">
          <mxGeometry relative="1" as="geometry" />
        </mxCell>
        <mxCell id="VUXOVUJdnFgX3zHBfYaI-72" value="파리" style="rounded=0;whiteSpace=wrap;html=1;" vertex="1" parent="1">
          <mxGeometry x="531.88" y="-267" width="26.25" height="20" as="geometry" />
        </mxCell>
        <mxCell id="VUXOVUJdnFgX3zHBfYaI-119" value="Assets" style="childLayout=tableLayout;recursiveResize=0;strokeColor=#98bf21;fillColor=#A7C942;shadow=0;" vertex="1" parent="1">
          <mxGeometry x="600" y="-340" width="270" height="120" as="geometry" />
        </mxCell>
        <mxCell id="VUXOVUJdnFgX3zHBfYaI-120" style="shape=tableRow;horizontal=0;startSize=0;swimlaneHead=0;swimlaneBody=0;top=0;left=0;bottom=0;right=0;dropTarget=0;collapsible=0;recursiveResize=0;expand=0;fontStyle=0;strokeColor=inherit;fillColor=#ffffff;" vertex="1" parent="VUXOVUJdnFgX3zHBfYaI-119">
          <mxGeometry width="270" height="26" as="geometry" />
        </mxCell>
        <mxCell id="VUXOVUJdnFgX3zHBfYaI-121" value="weight" style="connectable=0;recursiveResize=0;strokeColor=inherit;fillColor=#A7C942;align=center;fontStyle=1;fontColor=#FFFFFF;html=1;" vertex="1" parent="VUXOVUJdnFgX3zHBfYaI-120">
          <mxGeometry width="50" height="26" as="geometry">
            <mxRectangle width="50" height="26" as="alternateBounds" />
          </mxGeometry>
        </mxCell>
        <mxCell id="VUXOVUJdnFgX3zHBfYaI-122" value="key" style="connectable=0;recursiveResize=0;strokeColor=inherit;fillColor=#A7C942;align=center;fontStyle=1;fontColor=#FFFFFF;html=1;" vertex="1" parent="VUXOVUJdnFgX3zHBfYaI-120">
          <mxGeometry x="50" width="70" height="26" as="geometry">
            <mxRectangle width="70" height="26" as="alternateBounds" />
          </mxGeometry>
        </mxCell>
        <mxCell id="VUXOVUJdnFgX3zHBfYaI-123" value="value" style="connectable=0;recursiveResize=0;strokeColor=inherit;fillColor=#A7C942;align=center;fontStyle=1;fontColor=#FFFFFF;html=1;" vertex="1" parent="VUXOVUJdnFgX3zHBfYaI-120">
          <mxGeometry x="120" width="150" height="26" as="geometry">
            <mxRectangle width="150" height="26" as="alternateBounds" />
          </mxGeometry>
        </mxCell>
        <mxCell id="VUXOVUJdnFgX3zHBfYaI-124" value="" style="shape=tableRow;horizontal=0;startSize=0;swimlaneHead=0;swimlaneBody=0;top=0;left=0;bottom=0;right=0;dropTarget=0;collapsible=0;recursiveResize=0;expand=0;fontStyle=0;strokeColor=inherit;fillColor=#ffffff;" vertex="1" parent="VUXOVUJdnFgX3zHBfYaI-119">
          <mxGeometry y="26" width="270" height="25" as="geometry" />
        </mxCell>
        <mxCell id="VUXOVUJdnFgX3zHBfYaI-125" value="1" style="connectable=0;recursiveResize=0;strokeColor=inherit;fillColor=inherit;align=center;whiteSpace=wrap;html=1;" vertex="1" parent="VUXOVUJdnFgX3zHBfYaI-124">
          <mxGeometry width="50" height="25" as="geometry">
            <mxRectangle width="50" height="25" as="alternateBounds" />
          </mxGeometry>
        </mxCell>
        <mxCell id="VUXOVUJdnFgX3zHBfYaI-126" value="나는" style="connectable=0;recursiveResize=0;strokeColor=inherit;fillColor=inherit;align=center;whiteSpace=wrap;html=1;" vertex="1" parent="VUXOVUJdnFgX3zHBfYaI-124">
          <mxGeometry x="50" width="70" height="25" as="geometry">
            <mxRectangle width="70" height="25" as="alternateBounds" />
          </mxGeometry>
        </mxCell>
        <mxCell id="VUXOVUJdnFgX3zHBfYaI-127" value="0.2,0.3,0.9, ...1.2" style="connectable=0;recursiveResize=0;strokeColor=inherit;fillColor=inherit;align=center;whiteSpace=wrap;html=1;" vertex="1" parent="VUXOVUJdnFgX3zHBfYaI-124">
          <mxGeometry x="120" width="150" height="25" as="geometry">
            <mxRectangle width="150" height="25" as="alternateBounds" />
          </mxGeometry>
        </mxCell>
        <mxCell id="VUXOVUJdnFgX3zHBfYaI-128" value="" style="shape=tableRow;horizontal=0;startSize=0;swimlaneHead=0;swimlaneBody=0;top=0;left=0;bottom=0;right=0;dropTarget=0;collapsible=0;recursiveResize=0;expand=0;fontStyle=1;strokeColor=inherit;fillColor=#EAF2D3;" vertex="1" parent="VUXOVUJdnFgX3zHBfYaI-119">
          <mxGeometry y="51" width="270" height="19" as="geometry" />
        </mxCell>
        <mxCell id="VUXOVUJdnFgX3zHBfYaI-129" value="2" style="connectable=0;recursiveResize=0;strokeColor=inherit;fillColor=inherit;whiteSpace=wrap;html=1;" vertex="1" parent="VUXOVUJdnFgX3zHBfYaI-128">
          <mxGeometry width="50" height="19" as="geometry">
            <mxRectangle width="50" height="19" as="alternateBounds" />
          </mxGeometry>
        </mxCell>
        <mxCell id="VUXOVUJdnFgX3zHBfYaI-130" value="최근" style="connectable=0;recursiveResize=0;strokeColor=inherit;fillColor=inherit;whiteSpace=wrap;html=1;" vertex="1" parent="VUXOVUJdnFgX3zHBfYaI-128">
          <mxGeometry x="50" width="70" height="19" as="geometry">
            <mxRectangle width="70" height="19" as="alternateBounds" />
          </mxGeometry>
        </mxCell>
        <mxCell id="VUXOVUJdnFgX3zHBfYaI-131" value="0.1,0.2,0.5,...1.1,1.2" style="connectable=0;recursiveResize=0;strokeColor=inherit;fillColor=inherit;whiteSpace=wrap;html=1;" vertex="1" parent="VUXOVUJdnFgX3zHBfYaI-128">
          <mxGeometry x="120" width="150" height="19" as="geometry">
            <mxRectangle width="150" height="19" as="alternateBounds" />
          </mxGeometry>
        </mxCell>
        <mxCell id="VUXOVUJdnFgX3zHBfYaI-132" value="" style="shape=tableRow;horizontal=0;startSize=0;swimlaneHead=0;swimlaneBody=0;top=0;left=0;bottom=0;right=0;dropTarget=0;collapsible=0;recursiveResize=0;expand=0;fontStyle=0;strokeColor=inherit;fillColor=#ffffff;" vertex="1" parent="VUXOVUJdnFgX3zHBfYaI-119">
          <mxGeometry y="70" width="270" height="26" as="geometry" />
        </mxCell>
        <mxCell id="VUXOVUJdnFgX3zHBfYaI-133" value="3" style="connectable=0;recursiveResize=0;strokeColor=inherit;fillColor=inherit;fontStyle=0;align=center;whiteSpace=wrap;html=1;" vertex="1" parent="VUXOVUJdnFgX3zHBfYaI-132">
          <mxGeometry width="50" height="26" as="geometry">
            <mxRectangle width="50" height="26" as="alternateBounds" />
          </mxGeometry>
        </mxCell>
        <mxCell id="VUXOVUJdnFgX3zHBfYaI-134" value="파리" style="connectable=0;recursiveResize=0;strokeColor=inherit;fillColor=inherit;fontStyle=0;align=center;whiteSpace=wrap;html=1;" vertex="1" parent="VUXOVUJdnFgX3zHBfYaI-132">
          <mxGeometry x="50" width="70" height="26" as="geometry">
            <mxRectangle width="70" height="26" as="alternateBounds" />
          </mxGeometry>
        </mxCell>
        <mxCell id="VUXOVUJdnFgX3zHBfYaI-135" value="0.5,0.3, ... 1.1,0.2" style="connectable=0;recursiveResize=0;strokeColor=inherit;fillColor=inherit;fontStyle=0;align=center;whiteSpace=wrap;html=1;" vertex="1" parent="VUXOVUJdnFgX3zHBfYaI-132">
          <mxGeometry x="120" width="150" height="26" as="geometry">
            <mxRectangle width="150" height="26" as="alternateBounds" />
          </mxGeometry>
        </mxCell>
        <mxCell id="VUXOVUJdnFgX3zHBfYaI-136" value="" style="shape=tableRow;horizontal=0;startSize=0;swimlaneHead=0;swimlaneBody=0;top=0;left=0;bottom=0;right=0;dropTarget=0;collapsible=0;recursiveResize=0;expand=0;fontStyle=1;strokeColor=inherit;fillColor=#EAF2D3;" vertex="1" parent="VUXOVUJdnFgX3zHBfYaI-119">
          <mxGeometry y="96" width="270" height="24" as="geometry" />
        </mxCell>
        <mxCell id="VUXOVUJdnFgX3zHBfYaI-137" value="2" style="connectable=0;recursiveResize=0;strokeColor=inherit;fillColor=inherit;whiteSpace=wrap;html=1;" vertex="1" parent="VUXOVUJdnFgX3zHBfYaI-136">
          <mxGeometry width="50" height="24" as="geometry">
            <mxRectangle width="50" height="24" as="alternateBounds" />
          </mxGeometry>
        </mxCell>
        <mxCell id="VUXOVUJdnFgX3zHBfYaI-138" value="여행을" style="connectable=0;recursiveResize=0;strokeColor=inherit;fillColor=inherit;whiteSpace=wrap;html=1;" vertex="1" parent="VUXOVUJdnFgX3zHBfYaI-136">
          <mxGeometry x="50" width="70" height="24" as="geometry">
            <mxRectangle width="70" height="24" as="alternateBounds" />
          </mxGeometry>
        </mxCell>
        <mxCell id="VUXOVUJdnFgX3zHBfYaI-139" value="0.8,0.5, ... 1.7,0.8" style="connectable=0;recursiveResize=0;strokeColor=inherit;fillColor=inherit;whiteSpace=wrap;html=1;" vertex="1" parent="VUXOVUJdnFgX3zHBfYaI-136">
          <mxGeometry x="120" width="150" height="24" as="geometry">
            <mxRectangle width="150" height="24" as="alternateBounds" />
          </mxGeometry>
        </mxCell>
        <mxCell id="VUXOVUJdnFgX3zHBfYaI-147" value="0.2,0.9, ...1.7,1.2" style="connectable=0;recursiveResize=0;strokeColor=#98bf21;fillColor=inherit;fontStyle=0;align=center;whiteSpace=wrap;html=1;" vertex="1" parent="1">
          <mxGeometry x="720" y="-220" width="150" height="30" as="geometry">
            <mxRectangle width="93" height="33" as="alternateBounds" />
          </mxGeometry>
        </mxCell>
        <mxCell id="VUXOVUJdnFgX3zHBfYaI-149" value="query" style="text;html=1;align=center;verticalAlign=middle;whiteSpace=wrap;rounded=0;" vertex="1" parent="1">
          <mxGeometry x="515" y="-295" width="60" height="30" as="geometry" />
        </mxCell>
        <mxCell id="VUXOVUJdnFgX3zHBfYaI-150" value="" style="html=1;verticalLabelPosition=bottom;align=center;labelBackgroundColor=#ffffff;verticalAlign=top;strokeWidth=2;strokeColor=#0080F0;shadow=0;dashed=0;shape=mxgraph.ios7.icons.looking_glass;" vertex="1" parent="1">
          <mxGeometry x="565" y="-277" width="20" height="17" as="geometry" />
        </mxCell>
        <mxCell id="VUXOVUJdnFgX3zHBfYaI-151" style="edgeStyle=orthogonalEdgeStyle;rounded=0;orthogonalLoop=1;jettySize=auto;html=1;exitX=1;exitY=0.5;exitDx=0;exitDy=0;" edge="1" parent="1" source="VUXOVUJdnFgX3zHBfYaI-132">
          <mxGeometry relative="1" as="geometry">
            <mxPoint x="930" y="-257" as="targetPoint" />
          </mxGeometry>
        </mxCell>
        <mxCell id="VUXOVUJdnFgX3zHBfYaI-153" value="나는" style="rounded=0;whiteSpace=wrap;html=1;" vertex="1" parent="1">
          <mxGeometry x="930" y="-307" width="50" height="20" as="geometry" />
        </mxCell>
        <mxCell id="VUXOVUJdnFgX3zHBfYaI-154" value="최근" style="rounded=0;whiteSpace=wrap;html=1;" vertex="1" parent="1">
          <mxGeometry x="930" y="-287" width="50" height="20" as="geometry" />
        </mxCell>
        <mxCell id="VUXOVUJdnFgX3zHBfYaI-155" value="파리" style="rounded=0;whiteSpace=wrap;html=1;" vertex="1" parent="1">
          <mxGeometry x="930" y="-267" width="50" height="20" as="geometry" />
        </mxCell>
        <mxCell id="VUXOVUJdnFgX3zHBfYaI-156" value="여행을" style="rounded=0;whiteSpace=wrap;html=1;" vertex="1" parent="1">
          <mxGeometry x="930" y="-247" width="50" height="20" as="geometry" />
        </mxCell>
        <mxCell id="VUXOVUJdnFgX3zHBfYaI-157" value="다녀왔다" style="rounded=0;whiteSpace=wrap;html=1;" vertex="1" parent="1">
          <mxGeometry x="930" y="-227" width="50" height="20" as="geometry" />
        </mxCell>
        <mxCell id="VUXOVUJdnFgX3zHBfYaI-158" value="검색 결과" style="text;html=1;align=center;verticalAlign=middle;whiteSpace=wrap;rounded=0;" vertex="1" parent="1">
          <mxGeometry x="870" y="-283.5" width="60" height="30" as="geometry" />
        </mxCell>
        <mxCell id="VUXOVUJdnFgX3zHBfYaI-159" value="결과" style="text;html=1;align=center;verticalAlign=middle;whiteSpace=wrap;rounded=0;" vertex="1" parent="1">
          <mxGeometry x="925" y="-335" width="60" height="30" as="geometry" />
        </mxCell>
        <mxCell id="VUXOVUJdnFgX3zHBfYaI-160" value="저장소" style="text;html=1;align=center;verticalAlign=middle;whiteSpace=wrap;rounded=0;" vertex="1" parent="1">
          <mxGeometry x="688.5" y="-370" width="60" height="30" as="geometry" />
        </mxCell>
        <mxCell id="VUXOVUJdnFgX3zHBfYaI-166" style="rounded=0;orthogonalLoop=1;jettySize=auto;html=1;exitX=1;exitY=0.5;exitDx=0;exitDy=0;entryX=0.5;entryY=1;entryDx=0;entryDy=0;" edge="1" parent="1" source="VUXOVUJdnFgX3zHBfYaI-161" target="VUXOVUJdnFgX3zHBfYaI-164">
          <mxGeometry relative="1" as="geometry" />
        </mxCell>
        <mxCell id="VUXOVUJdnFgX3zHBfYaI-167" style="edgeStyle=orthogonalEdgeStyle;rounded=0;orthogonalLoop=1;jettySize=auto;html=1;exitX=0.5;exitY=0;exitDx=0;exitDy=0;entryX=0.5;entryY=1;entryDx=0;entryDy=0;" edge="1" parent="1" source="VUXOVUJdnFgX3zHBfYaI-161" target="VUXOVUJdnFgX3zHBfYaI-162">
          <mxGeometry relative="1" as="geometry" />
        </mxCell>
        <mxCell id="VUXOVUJdnFgX3zHBfYaI-161" value="x" style="text;html=1;align=center;verticalAlign=middle;whiteSpace=wrap;rounded=0;" vertex="1" parent="1">
          <mxGeometry x="237.5" y="-560" width="20" height="30" as="geometry" />
        </mxCell>
        <mxCell id="VUXOVUJdnFgX3zHBfYaI-169" style="edgeStyle=orthogonalEdgeStyle;rounded=0;orthogonalLoop=1;jettySize=auto;html=1;exitX=0.5;exitY=0;exitDx=0;exitDy=0;entryX=0.5;entryY=1;entryDx=0;entryDy=0;" edge="1" parent="1" source="VUXOVUJdnFgX3zHBfYaI-162" target="VUXOVUJdnFgX3zHBfYaI-163">
          <mxGeometry relative="1" as="geometry" />
        </mxCell>
        <mxCell id="VUXOVUJdnFgX3zHBfYaI-162" value="합" style="rounded=0;whiteSpace=wrap;html=1;" vertex="1" parent="1">
          <mxGeometry x="207.5" y="-650" width="80" height="20" as="geometry" />
        </mxCell>
        <mxCell id="VUXOVUJdnFgX3zHBfYaI-173" style="edgeStyle=orthogonalEdgeStyle;rounded=0;orthogonalLoop=1;jettySize=auto;html=1;exitX=0.5;exitY=0;exitDx=0;exitDy=0;entryX=0.5;entryY=1;entryDx=0;entryDy=0;" edge="1" parent="1" source="VUXOVUJdnFgX3zHBfYaI-163" target="VUXOVUJdnFgX3zHBfYaI-171">
          <mxGeometry relative="1" as="geometry" />
        </mxCell>
        <mxCell id="VUXOVUJdnFgX3zHBfYaI-174" style="rounded=0;orthogonalLoop=1;jettySize=auto;html=1;exitX=1;exitY=0.5;exitDx=0;exitDy=0;entryX=0.5;entryY=1;entryDx=0;entryDy=0;" edge="1" parent="1" source="VUXOVUJdnFgX3zHBfYaI-163" target="VUXOVUJdnFgX3zHBfYaI-165">
          <mxGeometry relative="1" as="geometry" />
        </mxCell>
        <mxCell id="VUXOVUJdnFgX3zHBfYaI-163" value="층 정규화" style="rounded=0;whiteSpace=wrap;html=1;" vertex="1" parent="1">
          <mxGeometry x="207.5" y="-690" width="80" height="20" as="geometry" />
        </mxCell>
        <mxCell id="VUXOVUJdnFgX3zHBfYaI-168" style="rounded=0;orthogonalLoop=1;jettySize=auto;html=1;exitX=0.5;exitY=0;exitDx=0;exitDy=0;entryX=1;entryY=0.5;entryDx=0;entryDy=0;" edge="1" parent="1" source="VUXOVUJdnFgX3zHBfYaI-164" target="VUXOVUJdnFgX3zHBfYaI-162">
          <mxGeometry relative="1" as="geometry" />
        </mxCell>
        <mxCell id="VUXOVUJdnFgX3zHBfYaI-164" value="&lt;div&gt;&lt;span style=&quot;background-color: initial;&quot;&gt;멀티 헤드&amp;nbsp;&lt;/span&gt;&lt;/div&gt;&lt;div&gt;&lt;span style=&quot;background-color: initial;&quot;&gt;어텐션&lt;/span&gt;&lt;/div&gt;" style="rounded=0;whiteSpace=wrap;html=1;" vertex="1" parent="1">
          <mxGeometry x="301.5" y="-620" width="81.25" height="40" as="geometry" />
        </mxCell>
        <mxCell id="VUXOVUJdnFgX3zHBfYaI-175" style="rounded=0;orthogonalLoop=1;jettySize=auto;html=1;exitX=0.5;exitY=0;exitDx=0;exitDy=0;entryX=1;entryY=0.5;entryDx=0;entryDy=0;" edge="1" parent="1" source="VUXOVUJdnFgX3zHBfYaI-165" target="VUXOVUJdnFgX3zHBfYaI-171">
          <mxGeometry relative="1" as="geometry" />
        </mxCell>
        <mxCell id="VUXOVUJdnFgX3zHBfYaI-165" value="피드 포워드" style="rounded=0;whiteSpace=wrap;html=1;" vertex="1" parent="1">
          <mxGeometry x="287.5" y="-740" width="80" height="20" as="geometry" />
        </mxCell>
        <mxCell id="VUXOVUJdnFgX3zHBfYaI-170" style="edgeStyle=orthogonalEdgeStyle;rounded=0;orthogonalLoop=1;jettySize=auto;html=1;exitX=0.5;exitY=0;exitDx=0;exitDy=0;entryX=0.5;entryY=1;entryDx=0;entryDy=0;" edge="1" parent="1" source="VUXOVUJdnFgX3zHBfYaI-171" target="VUXOVUJdnFgX3zHBfYaI-172">
          <mxGeometry relative="1" as="geometry" />
        </mxCell>
        <mxCell id="VUXOVUJdnFgX3zHBfYaI-171" value="합" style="rounded=0;whiteSpace=wrap;html=1;" vertex="1" parent="1">
          <mxGeometry x="207.5" y="-790" width="80" height="20" as="geometry" />
        </mxCell>
        <mxCell id="VUXOVUJdnFgX3zHBfYaI-178" style="edgeStyle=orthogonalEdgeStyle;rounded=0;orthogonalLoop=1;jettySize=auto;html=1;exitX=0.5;exitY=0;exitDx=0;exitDy=0;entryX=0.5;entryY=1;entryDx=0;entryDy=0;" edge="1" parent="1" source="VUXOVUJdnFgX3zHBfYaI-172" target="VUXOVUJdnFgX3zHBfYaI-177">
          <mxGeometry relative="1" as="geometry" />
        </mxCell>
        <mxCell id="VUXOVUJdnFgX3zHBfYaI-172" value="층 정규화" style="rounded=0;whiteSpace=wrap;html=1;" vertex="1" parent="1">
          <mxGeometry x="207.5" y="-830" width="80" height="20" as="geometry" />
        </mxCell>
        <mxCell id="VUXOVUJdnFgX3zHBfYaI-177" value="y" style="text;html=1;align=center;verticalAlign=middle;whiteSpace=wrap;rounded=0;" vertex="1" parent="1">
          <mxGeometry x="240" y="-881" width="12.5" height="30" as="geometry" />
        </mxCell>
        <mxCell id="VUXOVUJdnFgX3zHBfYaI-179" value="사후 정규화" style="text;html=1;align=center;verticalAlign=middle;whiteSpace=wrap;rounded=0;" vertex="1" parent="1">
          <mxGeometry x="201.25" y="-540" width="100.62" height="30" as="geometry" />
        </mxCell>
        <mxCell id="VUXOVUJdnFgX3zHBfYaI-181" style="edgeStyle=orthogonalEdgeStyle;rounded=0;orthogonalLoop=1;jettySize=auto;html=1;exitX=0.5;exitY=0;exitDx=0;exitDy=0;entryX=0.5;entryY=1;entryDx=0;entryDy=0;" edge="1" parent="1" source="VUXOVUJdnFgX3zHBfYaI-182" target="VUXOVUJdnFgX3zHBfYaI-184">
          <mxGeometry relative="1" as="geometry" />
        </mxCell>
        <mxCell id="VUXOVUJdnFgX3zHBfYaI-203" style="rounded=0;orthogonalLoop=1;jettySize=auto;html=1;exitX=1;exitY=0.5;exitDx=0;exitDy=0;entryX=0.5;entryY=1;entryDx=0;entryDy=0;" edge="1" parent="1" source="VUXOVUJdnFgX3zHBfYaI-182" target="VUXOVUJdnFgX3zHBfYaI-201">
          <mxGeometry relative="1" as="geometry" />
        </mxCell>
        <mxCell id="VUXOVUJdnFgX3zHBfYaI-182" value="x" style="text;html=1;align=center;verticalAlign=middle;whiteSpace=wrap;rounded=0;" vertex="1" parent="1">
          <mxGeometry x="466.25" y="-560" width="20" height="30" as="geometry" />
        </mxCell>
        <mxCell id="VUXOVUJdnFgX3zHBfYaI-184" value="합" style="rounded=0;whiteSpace=wrap;html=1;" vertex="1" parent="1">
          <mxGeometry x="436.25" y="-690" width="80" height="20" as="geometry" />
        </mxCell>
        <mxCell id="VUXOVUJdnFgX3zHBfYaI-185" style="edgeStyle=orthogonalEdgeStyle;rounded=0;orthogonalLoop=1;jettySize=auto;html=1;exitX=0.5;exitY=0;exitDx=0;exitDy=0;entryX=0.5;entryY=1;entryDx=0;entryDy=0;" edge="1" parent="1" target="VUXOVUJdnFgX3zHBfYaI-193">
          <mxGeometry relative="1" as="geometry">
            <mxPoint x="476.25" y="-690" as="sourcePoint" />
          </mxGeometry>
        </mxCell>
        <mxCell id="VUXOVUJdnFgX3zHBfYaI-199" style="rounded=0;orthogonalLoop=1;jettySize=auto;html=1;exitX=1;exitY=0.5;exitDx=0;exitDy=0;entryX=0.5;entryY=1;entryDx=0;entryDy=0;" edge="1" parent="1" target="VUXOVUJdnFgX3zHBfYaI-198">
          <mxGeometry relative="1" as="geometry">
            <mxPoint x="516.25" y="-680" as="sourcePoint" />
          </mxGeometry>
        </mxCell>
        <mxCell id="VUXOVUJdnFgX3zHBfYaI-188" style="rounded=0;orthogonalLoop=1;jettySize=auto;html=1;exitX=0.5;exitY=0;exitDx=0;exitDy=0;entryX=1;entryY=0.5;entryDx=0;entryDy=0;" edge="1" parent="1" source="VUXOVUJdnFgX3zHBfYaI-189" target="VUXOVUJdnFgX3zHBfYaI-184">
          <mxGeometry relative="1" as="geometry" />
        </mxCell>
        <mxCell id="VUXOVUJdnFgX3zHBfYaI-189" value="&lt;div&gt;&lt;span style=&quot;background-color: initial;&quot;&gt;멀티 헤드&amp;nbsp;&lt;/span&gt;&lt;/div&gt;&lt;div&gt;&lt;span style=&quot;background-color: initial;&quot;&gt;어텐션&lt;/span&gt;&lt;/div&gt;" style="rounded=0;whiteSpace=wrap;html=1;" vertex="1" parent="1">
          <mxGeometry x="516.25" y="-650" width="81.25" height="40" as="geometry" />
        </mxCell>
        <mxCell id="VUXOVUJdnFgX3zHBfYaI-190" style="rounded=0;orthogonalLoop=1;jettySize=auto;html=1;exitX=0.5;exitY=0;exitDx=0;exitDy=0;entryX=1;entryY=0.5;entryDx=0;entryDy=0;" edge="1" parent="1" source="VUXOVUJdnFgX3zHBfYaI-191" target="VUXOVUJdnFgX3zHBfYaI-193">
          <mxGeometry relative="1" as="geometry" />
        </mxCell>
        <mxCell id="VUXOVUJdnFgX3zHBfYaI-191" value="피드 포워드" style="rounded=0;whiteSpace=wrap;html=1;" vertex="1" parent="1">
          <mxGeometry x="516.25" y="-790" width="80" height="20" as="geometry" />
        </mxCell>
        <mxCell id="VUXOVUJdnFgX3zHBfYaI-193" value="합" style="rounded=0;whiteSpace=wrap;html=1;" vertex="1" parent="1">
          <mxGeometry x="436.25" y="-840" width="80" height="20" as="geometry" />
        </mxCell>
        <mxCell id="VUXOVUJdnFgX3zHBfYaI-196" value="y" style="text;html=1;align=center;verticalAlign=middle;whiteSpace=wrap;rounded=0;" vertex="1" parent="1">
          <mxGeometry x="468.75" y="-881" width="12.5" height="30" as="geometry" />
        </mxCell>
        <mxCell id="VUXOVUJdnFgX3zHBfYaI-197" value="사전 정규화" style="text;html=1;align=center;verticalAlign=middle;whiteSpace=wrap;rounded=0;" vertex="1" parent="1">
          <mxGeometry x="430" y="-540" width="100.62" height="30" as="geometry" />
        </mxCell>
        <mxCell id="VUXOVUJdnFgX3zHBfYaI-200" style="edgeStyle=orthogonalEdgeStyle;rounded=0;orthogonalLoop=1;jettySize=auto;html=1;exitX=0.5;exitY=0;exitDx=0;exitDy=0;entryX=0.5;entryY=1;entryDx=0;entryDy=0;" edge="1" parent="1" source="VUXOVUJdnFgX3zHBfYaI-198" target="VUXOVUJdnFgX3zHBfYaI-191">
          <mxGeometry relative="1" as="geometry" />
        </mxCell>
        <mxCell id="VUXOVUJdnFgX3zHBfYaI-198" value="층 정규화" style="rounded=0;whiteSpace=wrap;html=1;" vertex="1" parent="1">
          <mxGeometry x="516.25" y="-750" width="80" height="20" as="geometry" />
        </mxCell>
        <mxCell id="VUXOVUJdnFgX3zHBfYaI-202" style="edgeStyle=orthogonalEdgeStyle;rounded=0;orthogonalLoop=1;jettySize=auto;html=1;exitX=0.5;exitY=0;exitDx=0;exitDy=0;entryX=0.5;entryY=1;entryDx=0;entryDy=0;" edge="1" parent="1" source="VUXOVUJdnFgX3zHBfYaI-201" target="VUXOVUJdnFgX3zHBfYaI-189">
          <mxGeometry relative="1" as="geometry" />
        </mxCell>
        <mxCell id="VUXOVUJdnFgX3zHBfYaI-201" value="층 정규화" style="rounded=0;whiteSpace=wrap;html=1;" vertex="1" parent="1">
          <mxGeometry x="517.5" y="-594" width="80" height="20" as="geometry" />
        </mxCell>
      </root>
    </mxGraphModel>
  </diagram>
</mxfile>
